<svg width="22" height="22" viewBox="0 0 22 22" fill="none" xmlns="http://www.w3.org/2000/svg">
<path d="M9.03904 5.23966C9.73321 4.77135 10.2911 4.35205 10.8888 4.00084C11.9078 3.40166 12.9763 3.2731 14.1138 3.71916C16.1738 4.54113 17.2885 6.05543 17.569 8.22841C17.7231 9.42549 17.2221 10.4342 16.5707 11.3614C15.8893 12.3382 15.1186 13.2503 14.4083 14.2106C13.4276 15.5257 12.7504 16.968 12.5731 18.6264C12.5378 18.9524 12.3352 19.2608 12.2346 19.5127C11.7739 19.6816 11.4596 19.6681 11.2115 19.3228C11.0666 19.1273 10.8871 18.9567 10.7348 18.7658C10.0688 17.9379 9.24357 17.2968 8.37141 16.7036C7.0676 15.8192 5.71875 15.002 4.48895 14.0132C3.46719 13.1975 2.63968 12.1641 2.06654 10.9879C1.42104 9.65392 1.31804 8.23521 1.90726 6.8029C2.58226 5.15757 4.9135 3.48136 7.30449 4.18315C7.79341 4.32649 8.22619 4.6682 8.6743 4.93323C8.80528 5.02358 8.9274 5.12619 9.03904 5.23966ZM11.2198 17.2352C11.2865 17.1523 11.3416 17.0607 11.3837 16.963C11.8417 15.27 12.7413 13.8274 13.8469 12.4858C14.5135 11.6768 15.1411 10.8314 15.7251 9.95738C16.6393 8.6076 16.3921 7.38512 15.4839 6.16223C15.1973 5.8081 14.8588 5.49947 14.4799 5.24682C13.7489 4.72058 12.9426 4.62286 12.0843 4.92173C11.2042 5.22899 10.4504 5.69583 9.88212 6.46085C9.56435 6.88662 9.0962 6.89778 8.69919 6.55212C8.59373 6.45974 8.49881 6.35594 8.41617 6.24262C7.90224 5.54521 7.1749 5.3812 6.36941 5.4053C5.66434 5.42704 4.97928 5.64535 4.39125 6.03569C4.09646 6.22187 3.84671 6.47144 3.66012 6.76629C2.98669 7.9141 2.8204 9.13801 3.31354 10.3979C3.74441 11.52 4.4921 12.4921 5.46531 13.1955C6.14705 13.6955 6.83717 14.1662 7.53857 14.6292C8.70868 15.4003 9.90292 16.1324 10.9328 17.0967C11.0216 17.1559 11.1182 17.2026 11.2198 17.2352Z" fill="#FF0F82"/>
<path d="M11.2198 17.2352C11.119 17.2015 11.0234 17.154 10.9356 17.0941C9.90575 16.1298 8.71151 15.3977 7.5414 14.6266C6.83715 14.1662 6.14789 13.6884 5.46529 13.1955C4.49178 12.4934 3.7433 11.5227 3.31117 10.4017C2.81953 9.14511 2.98433 7.91784 3.65775 6.77003C3.84434 6.47518 4.09409 6.22562 4.38888 6.03943C4.97719 5.64736 5.66315 5.42773 6.36939 5.40531C7.17488 5.38121 7.90557 5.54371 8.41615 6.24262C8.49879 6.35594 8.59371 6.45974 8.69917 6.55212C9.09618 6.89779 9.56433 6.88663 9.8821 6.46085C10.4504 5.69583 11.2076 5.22749 12.0843 4.92173C12.9426 4.62286 13.7489 4.72059 14.4799 5.24683C14.8587 5.49947 15.1972 5.8081 15.4839 6.16224C16.3921 7.38513 16.6358 8.59977 15.725 9.95738C15.1396 10.8281 14.5135 11.6768 13.8469 12.4858C12.7413 13.8274 11.8397 15.2655 11.3837 16.963C11.3416 17.0607 11.2865 17.1523 11.2198 17.2352Z" fill="#FF0F82"/>
</svg>
